<svg width="24" height="24" viewBox="0 0 24 24" fill="none" xmlns="http://www.w3.org/2000/svg">
<g clip-path="url(#clip0_1259_7645)">
<path d="M5.6584 23.0312C5.2524 23.0312 4.91407 22.9056 4.6434 22.6542C4.37274 22.3836 4.2374 22.0549 4.2374 21.6682V1.74525C4.2374 1.35858 4.36307 1.03958 4.6144 0.788249C4.88507 0.517583 5.21374 0.382249 5.6004 0.382249H17.9254C18.2734 0.382249 18.5634 0.507916 18.7954 0.75925C19.0467 0.991249 19.1724 1.30058 19.1724 1.68725C19.1724 2.05458 19.0467 2.35425 18.7954 2.58625C18.5634 2.81825 18.2734 2.93425 17.9254 2.93425H6.9634V9.69125H13.7784C15.1897 9.69125 16.4464 9.97158 17.5484 10.5322C18.6504 11.0736 19.5107 11.8372 20.1294 12.8232C20.7481 13.8092 21.0574 14.9499 21.0574 16.2452C21.0574 17.5599 20.7481 18.7296 20.1294 19.7542C19.5107 20.7789 18.6504 21.5812 17.5484 22.1612C16.4464 22.7412 15.1897 23.0312 13.7784 23.0312H5.6584ZM6.9634 20.4792H13.7784C14.6871 20.4792 15.4894 20.3149 16.1854 19.9862C16.8814 19.6382 17.4227 19.1452 17.8094 18.5072C18.1961 17.8692 18.3894 17.0959 18.3894 16.1872C18.3894 15.2979 18.1961 14.5439 17.8094 13.9252C17.4227 13.3066 16.8814 12.8426 16.1854 12.5332C15.4894 12.2239 14.6871 12.0692 13.7784 12.0692H6.9634V20.4792Z" fill="url(#paint0_linear_1259_7645)"/>
</g>
<defs>
<linearGradient id="paint0_linear_1259_7645" x1="12" y1="-1.96875" x2="12" y2="30.0312" gradientUnits="userSpaceOnUse">
<stop offset="0.1" stop-color="#164ED0"/>
<stop offset="1" stop-color="#F13870"/>
</linearGradient>
<clipPath id="clip0_1259_7645">
<rect width="24" height="24" fill="white"/>
</clipPath>
</defs>
</svg>
