<svg width="24" height="24" viewBox="0 0 24 24" fill="none" xmlns="http://www.w3.org/2000/svg">
<g clip-path="url(#clip0_1241_7647)">
<path fill-rule="evenodd" clip-rule="evenodd" d="M2.16699 8.95582C2.16699 4.93771 2.16699 2.92866 3.35285 1.68039C4.53869 0.432129 6.4473 0.432129 10.2645 0.432129H13.7349C17.552 0.432129 19.4606 0.432129 20.6465 1.68039C21.8324 2.92866 21.8324 4.93771 21.8324 8.95582V15.0442C21.8324 19.0623 21.8324 21.0713 20.6465 22.3196C19.4606 23.5679 17.552 23.5679 13.7349 23.5679H13.7349H10.2645H10.2645C6.44729 23.5679 4.53869 23.5679 3.35285 22.3196C2.16699 21.0713 2.16699 19.0623 2.16699 15.0442V8.95582ZM7.54272 0.514599C7.95129 0.446503 8.33771 0.722517 8.40581 1.1311L8.49486 1.6654C8.60611 2.3329 8.67948 2.76482 8.7739 3.08196C8.86234 3.37904 8.94456 3.48424 9.01869 3.54704C9.09282 3.60983 9.21011 3.67364 9.51768 3.71204C9.84603 3.75303 10.2841 3.75439 10.9609 3.75439H13.0378C13.7146 3.75439 14.1527 3.75303 14.4811 3.71204C14.7886 3.67363 14.9059 3.60983 14.98 3.54705C15.0542 3.48425 15.1364 3.37903 15.2248 3.08196C15.3192 2.76483 15.3926 2.33291 15.5038 1.66542L15.5038 1.6654L15.5929 1.1311C15.661 0.722517 16.0474 0.446503 16.456 0.514599C16.8646 0.582695 17.1406 0.969116 17.0725 1.37769L16.9834 1.91197L16.9834 1.91199L16.9761 1.95592V1.95593C16.8744 2.56669 16.7868 3.09231 16.6625 3.50997C16.5292 3.95768 16.3301 4.36926 15.9496 4.69156C15.5692 5.01387 15.1304 5.14261 14.6669 5.20048C14.2346 5.25445 13.7019 5.25443 13.0829 5.2544H13.0828L13.0378 5.25439H10.9609L10.9159 5.2544H10.9158C10.2968 5.25443 9.76414 5.25445 9.33184 5.20048C8.86831 5.14261 8.42959 5.01386 8.04913 4.69157C7.66867 4.36927 7.46955 3.95768 7.33626 3.50997C7.21195 3.09242 7.1244 2.56696 7.02267 1.95641L7.02267 1.95638L7.01527 1.91199L6.92622 1.37769C6.85812 0.969116 7.13414 0.582695 7.54272 0.514599ZM7.66602 10.1665C7.2518 10.1665 6.91602 10.5023 6.91602 10.9165C6.91602 11.3307 7.2518 11.6665 7.66602 11.6665H16.3327C16.7469 11.6665 17.0827 11.3307 17.0827 10.9165C17.0827 10.5023 16.7469 10.1665 16.3327 10.1665H7.66602ZM7.66602 15.5832C7.2518 15.5832 6.91602 15.919 6.91602 16.3332C6.91602 16.7474 7.2518 17.0832 7.66602 17.0832H11.9993C12.4136 17.0832 12.7493 16.7474 12.7493 16.3332C12.7493 15.919 12.4136 15.5832 11.9993 15.5832H7.66602Z" fill="#001812"/>
</g>
<defs>
<clipPath id="clip0_1241_7647">
<rect width="24" height="24" fill="white"/>
</clipPath>
</defs>
</svg>
